<!DOCTYPE svg PUBLIC "-//W3C//DTD SVG 1.1//EN" "http://www.w3.org/Graphics/SVG/1.1/DTD/svg11.dtd">
<!-- Uploaded to: SVG Repo, www.svgrepo.com, Transformed by: SVG Repo Mixer Tools -->
<svg fill="#000000" width="64px" height="64px" viewBox="0 0 24 24" id="file-new" data-name="Flat Color" xmlns="http://www.w3.org/2000/svg" class="icon flat-color">
<g id="SVGRepo_bgCarrier" stroke-width="0"/>
<g id="SVGRepo_tracerCarrier" stroke-linecap="round" stroke-linejoin="round"/>
<g id="SVGRepo_iconCarrier">
<path id="secondary" d="M21,17H19V15a1,1,0,0,0-2,0v2H15a1,1,0,0,0,0,2h2v2a1,1,0,0,0,2,0V19h2a1,1,0,0,0,0-2Z" style="fill: #2a90ef;"/>
<path id="primary" d="M11,17a6,6,0,0,1,6-6,6.64,6.64,0,0,1,1,.09V7.41A2,2,0,0,0,17.41,6L14,2.59A2,2,0,0,0,12.59,2H4A2,2,0,0,0,2,4V19a2,2,0,0,0,2,2h8.55A5.93,5.93,0,0,1,11,17Z" style="fill: #2a90ef;"/>
</g>
</svg>