<!DOCTYPE svg PUBLIC "-//W3C//DTD SVG 1.1//EN" "http://www.w3.org/Graphics/SVG/1.1/DTD/svg11.dtd">
<!-- Uploaded to: SVG Repo, www.svgrepo.com, Transformed by: SVG Repo Mixer Tools -->
<svg height="64px" width="64px" version="1.1" id="_x32_" xmlns="http://www.w3.org/2000/svg" xmlns:xlink="http://www.w3.org/1999/xlink" viewBox="0 0 512 512" xml:space="preserve" fill="#1c274c" stroke="#1c274c">
<g id="SVGRepo_bgCarrier" stroke-width="0"/>
<g id="SVGRepo_tracerCarrier" stroke-linecap="round" stroke-linejoin="round"/>
<g id="SVGRepo_iconCarrier"> <style type="text/css"> .st0{fill:#1c274c;} </style> <g> <path class="st0" d="M61.028,315.636h21.487c33.703,0,61.027-27.326,61.027-61.028V111.597c0-33.702-27.324-61.028-61.027-61.028 H61.028C27.326,50.569,0,77.895,0,111.597v143.011C0,288.311,27.326,315.636,61.028,315.636z"/> <path class="st0" d="M436.433,71.276H173.27v58.264v99.967v25.102c0,50.614-41.172,91.787-91.786,91.787H59.996 c-22.939,0-43.886-8.511-59.996-22.479v61.949c0,41.733,33.833,75.566,75.566,75.566h360.867c41.733,0,75.567-33.833,75.567-75.566 V146.842C512,105.109,478.166,71.276,436.433,71.276z M233.766,367.931c-11.004,0-19.925-8.921-19.925-19.925 c0-11.004,8.921-19.935,19.925-19.935c11.005,0,19.936,8.93,19.936,19.935C253.702,359.01,244.771,367.931,233.766,367.931z M233.766,302.98c-11.004,0-19.925-8.921-19.925-19.926c0-11.004,8.921-19.935,19.925-19.935c11.005,0,19.936,8.932,19.936,19.935 C253.702,294.059,244.771,302.98,233.766,302.98z M233.766,238.047c-11.004,0-19.925-8.921-19.925-19.926 c0-11.004,8.921-19.935,19.925-19.935c11.005,0,19.936,8.931,19.936,19.935C253.702,229.126,244.771,238.047,233.766,238.047z M336.307,367.931c-11.004,0-19.925-8.921-19.925-19.925c0-11.004,8.921-19.935,19.925-19.935c11.005,0,19.935,8.93,19.935,19.935 C356.242,359.01,347.312,367.931,336.307,367.931z M336.307,302.98c-11.004,0-19.925-8.921-19.925-19.926 c0-11.004,8.921-19.935,19.925-19.935c11.005,0,19.935,8.932,19.935,19.935C356.242,294.059,347.312,302.98,336.307,302.98z M336.307,238.047c-11.004,0-19.925-8.921-19.925-19.926c0-11.004,8.921-19.935,19.925-19.935c11.005,0,19.935,8.931,19.935,19.935 C356.242,229.126,347.312,238.047,336.307,238.047z M438.847,367.931c-11.004,0-19.926-8.921-19.926-19.925 c0-11.004,8.921-19.935,19.926-19.935c11.014,0,19.935,8.93,19.935,19.935C458.782,359.01,449.861,367.931,438.847,367.931z M438.847,302.98c-11.004,0-19.926-8.921-19.926-19.926c0-11.004,8.921-19.935,19.926-19.935c11.014,0,19.935,8.932,19.935,19.935 C458.782,294.059,449.861,302.98,438.847,302.98z M438.847,238.047c-11.004,0-19.926-8.921-19.926-19.926 c0-11.004,8.921-19.935,19.926-19.935c11.014,0,19.935,8.931,19.935,19.935C458.782,229.126,449.861,238.047,438.847,238.047z M439.848,168.008h-205.06c-11.323,0-20.506-9.182-20.506-20.506s9.183-20.506,20.506-20.506h205.06 c11.324,0,20.506,9.182,20.506,20.506S451.172,168.008,439.848,168.008z"/> </g> </g>
</svg>